<svg data-v-0dd9719b="" version="1.0" xmlns="http://www.w3.org/2000/svg" xmlns:xlink="http://www.w3.org/1999/xlink" width="100%" height="100%" viewBox="0 0 340.000000 250.000000" preserveAspectRatio="xMidYMid meet" color-interpolation-filters="sRGB" style="margin: auto;"> <rect data-v-0dd9719b="" x="0" y="0" width="100%" height="100%" fill="#fff" fill-opacity="1" class="background"></rect> <rect data-v-0dd9719b="" x="0" y="0" width="100%" height="100%" fill="url(#watermark)" fill-opacity="1" class="watermarklayer"></rect> <g data-v-0dd9719b="" fill="#333" class="icon-text-wrapper icon-svg-group iconsvg" transform="translate(54.715003967285156,99.01922607421875)"><g class="iconsvg-imagesvg" transform="translate(0,0)"><g><rect fill="#333" fill-opacity="0" stroke-width="2" x="0" y="0" width="60" height="51.96154845414393" class="image-rect"></rect> <svg x="0" y="0" width="60" height="51.96154845414393" filtersec="colorsb6017261980" class="image-svg-svg primary" style="overflow: visible;"><svg xmlns="http://www.w3.org/2000/svg" viewBox="0 0 115.4699935913086 100"><g fill-rule="evenodd"><path d="M88.47 31.82a5.89 5.89 0 0 0 .45-2.27 6 6 0 1 0-6.37 5.94L98.83 63.7l-21 36.3h8.77l20.62-35.71zM28 43.46a6 6 0 0 0 5.31-8.66L49.05 7.56H91L86.6 0H45.37L27.12 31.61A6 6 0 0 0 28 43.46zM62.76 76.19a6 6 0 0 0-4.88 2.55H25.32l-21-36.3L0 50l20.62 35.71H58a6 6 0 1 0 4.77-9.52z" fill="#00a2e9"></path><path d="M94.85 14.29h-37a6 6 0 1 0 0 7h32.3l21 36.3 4.32-7.59zM87.18 56.23a6 6 0 0 0-5.08 9.06L66.42 92.44H24.5l4.37 7.56H70.1l18.49-32a6 6 0 0 0-1.41-11.75zM25.66 69.75a6 6 0 1 0 6.89-5.88L16.64 36.3 37.6 0h-8.73L8.25 35.71 26.32 67a6 6 0 0 0-.66 2.75z" fill="#096594"></path></g></svg></svg> <!----></g></g> <g transform="translate(67,2.2795238494873047)"><g data-gra="path-name" fill-rule="" class="tp-name iconsvg-namesvg" transform="translate(0,0)"><g transform="scale(1)"><g><path d="M15.07-4.5L18.31-4.5Q18.68-4.5 18.97-4.77 19.26-5.04 19.26-5.44L19.26-5.44 19.26-16.34 1.84-16.34 1.84-20.7 19.26-20.7 24.84-20.7 39.42-20.7 39.42-16.34 24.84-16.34 24.84-3.46Q24.84-2.02 23.87-1.06 22.9-0.09 21.46-0.09L21.46-0.09 13.14-0.09 15.07-4.5ZM6.66-25.33L6.66-22.68 1.08-22.68 1.08-29.74 6.66-29.74 16.7-29.74 15.48-32.35 21.64-32.35 22.9-29.74 36.09-29.74Q37.84-29.74 39.08-28.51 40.32-27.27 40.32-25.52L40.32-25.52 40.32-22.68 34.74-22.68 34.74-23.94Q34.74-24.52 34.34-24.93 33.93-25.33 33.34-25.33L33.34-25.33 6.66-25.33ZM52.56-12.82L48.38 0 42.16 0 46.35-12.82 52.56-12.82ZM46.35-14.94L42.16-25.02 45.23-25.02 42.16-32.45 48.38-32.45 52.56-22.32 49.5-22.32 52.56-14.94 46.35-14.94ZM58.14-0.09L51.93-0.09 53.46-5.17 53.46-26.01 53.46-29.97 53.46-30.38 66.87-30.38 66.87-32.45 72.81-32.45 72.81-30.38 81.99-30.38 79.97-22.36 74.25-22.36 75.24-26.01 72.81-26.01 72.81-21.06 80.86-21.06 80.86-16.7Q80.37-13.86 79.04-11.54 77.72-9.22 75.82-7.33L75.82-7.33Q77-6.79 78.28-6.41 79.56-6.03 80.86-5.76L80.86-5.76 80.86-0.04Q78.3-0.45 75.67-1.3 73.03-2.16 70.6-3.51L70.6-3.51Q68.17-2.16 65.56-1.3 62.95-0.45 60.39-0.04L60.39-0.04 60.39-5.76Q61.69-6.03 62.95-6.43 64.22-6.84 65.43-7.33L65.43-7.33Q63.67-9.04 62.41-11.14 61.16-13.23 60.57-15.75L60.57-15.75 66.96-15.75Q67.63-14.17 68.56-12.91 69.48-11.65 70.6-10.62L70.6-10.62Q71.91-11.79 72.92-13.3 73.94-14.8 74.7-16.7L74.7-16.7 59.71-16.7 59.71-5.17 58.14-0.09ZM66.87-26.01L59.71-26.01 59.71-21.06 66.87-21.06 66.87-26.01ZM90.13-0.04L84.02-0.04 92.52-23.94 84.83-23.94 84.83-28.35 94.09-28.35 95.53-32.35 101.7-32.35 100.26-28.35 115.83-28.35 115.83-5.58Q115.83-5.17 116.12-4.88 116.41-4.59 116.82-4.59L116.82-4.59 122.98-4.59 121.36-0.18 113.67-0.18Q112-0.18 110.83-1.35 109.66-2.52 109.66-4.18L109.66-4.18 109.66-23.94 98.69-23.94 90.13-0.04ZM144.27-29.47L137.92-29.34 137.92-27.81 144.27-27.81 144.27-24.93 137.92-24.93 137.92-17.41 131.76-17.41 131.76-24.93 125.14-24.93 125.14-27.81 131.76-27.81 131.76-29.25 125.14-29.11 125.14-32.04 144.27-32.35 144.27-29.47ZM129.96-17.41L125.19-17.41 126.22-24.03 130.99-24.03 129.96-17.41ZM153.09-32.4L152.37-30.73 164.65-30.73 164.65-28.04 164.65-27.81 164.65-21.06Q164.65-19.48 163.57-18.38 162.5-17.28 160.92-17.28L160.92-17.28 160.33-17.28 158.49-17.28 157.14-20.11 157.81-20.11Q158.26-20.11 158.58-20.41 158.89-20.7 158.89-21.2L158.89-21.2 158.89-27.81 155.11-27.81 151.38-17.41 145.26-17.41 148.99-27.81 146.83-27.81 145.17-27.81 147.1-32.4 153.09-32.4ZM139.5-17.41L138.46-24.03 143.19-24.03 144.27-17.41 139.5-17.41ZM142.24-4.72L142.24-11.56 148.36-11.56 148.36-4.91Q148.36-3.87 147.98-2.97 147.6-2.07 146.92-1.42 146.25-0.77 145.35-0.38 144.45 0 143.46 0L143.46 0 140.08 0 138.87-3.33 140.85-3.33Q141.44-3.33 141.84-3.73 142.24-4.14 142.24-4.72L142.24-4.72ZM158.98-15.88L160.47-15.88 164.65-11.16 156.91-11.16 155.74-12.46 134.1-12.46 132.97-11.16 125.19-11.16 129.42-15.88 130.54-15.88 137.16-15.88 152.69-15.88 158.98-15.88ZM156.6 0L150.44-4.91 158.35-4.91 164.38 0 156.6 0ZM161.86-9.9L159.48-6.3 152.37-6.3 154.8-9.9 161.86-9.9ZM133.2 0L125.37 0 131.4-4.91 139.36-4.91 133.2 0ZM135-9.9L137.38-6.3 130.32-6.3 127.89-9.9 135-9.9Z" transform="translate(-1.0800000429153442, 32.45000076293945)"></path></g> <!----> <!----> <!----> <!----> <!----> <!----> <!----></g></g> <g data-gra="path-slogan" fill-rule="" class="tp-slogan iconsvg-slogansvg" fill="#333" transform="translate(43.534996032714844,38.45000076293945)"><!----> <!----> <g transform="scale(1, 1)"><g transform="scale(1)"><path d="M2.30-8.58L6.61-1.64L6.61-8.58L7.73-8.58L7.73 0L6.42 0L2.06-6.94L2.02-6.94L2.02 0L0.89 0L0.89-8.58L2.30-8.58ZM9.70-8.58L10.88-8.58L10.88 0L9.70 0L9.70-8.58ZM14.25-8.58L18.56-1.64L18.56-8.58L19.69-8.58L19.69 0L18.38 0L14.02-6.94L13.97-6.94L13.97 0L12.84 0L12.84-8.58L14.25-8.58ZM27.89-3.61L25.27-3.61L25.27-4.59L29.02-4.59L29.02 0L28.27 0L27.98-1.08Q27 0.09 25.17 0.14L25.17 0.14Q23.44 0.14 22.50-0.75L22.50-0.75Q21.09-2.06 21.14-4.36L21.14-4.36Q21.47-8.63 25.22-8.81L25.22-8.81Q28.41-8.63 28.88-6L28.88-6L27.75-6Q27.28-7.78 25.17-7.83L25.17-7.83Q22.50-7.64 22.36-4.31L22.36-4.31Q22.36-0.75 25.22-0.75L25.22-0.75Q26.25-0.75 27-1.31L27-1.31Q27.94-2.06 27.89-3.61L27.89-3.61ZM34.03-7.64L31.97-7.64L31.97-4.97L34.03-4.97Q35.86-4.92 35.81-6.38L35.81-6.38Q35.81-7.64 34.03-7.64L34.03-7.64ZM34.50 0L30.80 0L30.80-8.58L34.59-8.58Q36.89-8.48 36.98-6.42L36.98-6.42Q36.98-5.16 35.86-4.64L35.86-4.64Q37.45-4.08 37.45-2.53L37.45-2.53Q37.31-0.09 34.50 0L34.50 0ZM34.22-3.98L31.97-3.98L31.97-0.98L34.45-0.98Q36.23-1.03 36.28-2.53L36.28-2.53Q36.28-3.98 34.22-3.98L34.22-3.98ZM45.56-4.27L45.56-4.27Q45.38-7.64 42.56-7.83L42.56-7.83Q39.70-7.69 39.56-4.27L39.56-4.27Q39.70-0.94 42.56-0.80L42.56-0.80Q45.38-0.98 45.56-4.27ZM46.73-4.27L46.73-4.27Q46.45 0 42.56 0.14L42.56 0.14Q38.63 0 38.34-4.27L38.34-4.27Q38.58-8.72 42.56-8.81L42.56-8.81Q46.45-8.67 46.73-4.27ZM50.72-1.92L50.72-2.77L51.80-2.77L51.80-2.16Q51.80-0.75 53.11-0.75L53.11-0.75Q54.47-0.75 54.47-2.25L54.47-2.25L54.47-8.58L55.64-8.58L55.64-2.30Q55.59 0.09 53.16 0.14L53.16 0.14Q50.86 0.09 50.72-1.92L50.72-1.92ZM57.61-8.58L58.78-8.58L58.78 0L57.61 0L57.61-8.58ZM66.42-3.19L66.42-8.58L67.59-8.58L67.59-3.05Q67.45 0.05 64.08 0.14L64.08 0.14Q60.94 0.05 60.80-2.86L60.80-2.86L60.80-8.58L61.97-8.58L61.97-3.19Q62.02-0.84 64.13-0.80L64.13-0.80Q66.42-0.84 66.42-3.19L66.42-3.19ZM69.38-8.58L70.55-8.58L70.55-1.03L74.91-1.03L74.91 0L69.38 0L69.38-8.58ZM76.22-8.58L77.39-8.58L77.39 0L76.22 0L76.22-8.58Z" transform="translate(-0.890625, 8.8125)"></path></g></g></g></g></g><defs v-gra="od"></defs></svg>